<svg width="30" height="30" viewBox="0 0 30 30" fill="none" xmlns="http://www.w3.org/2000/svg">
<rect width="29.25" height="29.25" rx="14.625" fill="#570D1B"/>
<path fill-rule="evenodd" clip-rule="evenodd" d="M15.25 8.625C15.25 8.45924 15.1842 8.30027 15.0669 8.18306C14.9497 8.06585 14.7908 8 14.625 8C14.4592 8 14.3003 8.06585 14.1831 8.18306C14.0658 8.30027 14 8.45924 14 8.625V13.96H8.625C8.45924 13.96 8.30027 14.0258 8.18306 14.1431C8.06585 14.2603 8 14.4192 8 14.585C8 14.7508 8.06585 14.9097 8.18306 15.0269C8.30027 15.1442 8.45924 15.21 8.625 15.21H14V20.625C14 20.7908 14.0658 20.9497 14.1831 21.0669C14.3003 21.1842 14.4592 21.25 14.625 21.25C14.7908 21.25 14.9497 21.1842 15.0669 21.0669C15.1842 20.9497 15.25 20.7908 15.25 20.625V15.21H20.625C20.7908 15.21 20.9497 15.1442 21.0669 15.0269C21.1842 14.9097 21.25 14.7508 21.25 14.585C21.25 14.4192 21.1842 14.2603 21.0669 14.1431C20.9497 14.0258 20.7908 13.96 20.625 13.96H15.25V8.625Z" fill="#F5B14F"/>
</svg>
