<svg width="33" height="33" viewBox="0 0 33 33" fill="none" xmlns="http://www.w3.org/2000/svg">
<path d="M29.7203 13.1998C29.7203 12.7622 29.5464 12.3425 29.237 12.0331C28.9276 11.7236 28.5079 11.5498 28.0703 11.5498C27.6327 11.5498 27.213 11.7236 26.9035 12.0331C26.5941 12.3425 26.4203 12.7622 26.4203 13.1998H29.7203ZM6.62028 13.1998C6.62028 12.7622 6.44644 12.3425 6.137 12.0331C5.82757 11.7236 5.40788 11.5498 4.97028 11.5498C4.53267 11.5498 4.11298 11.7236 3.80355 12.0331C3.49411 12.3425 3.32028 12.7622 3.32028 13.1998H6.62028ZM30.2037 17.6664C30.5149 17.9669 30.9317 18.1333 31.3643 18.1295C31.797 18.1257 32.2108 17.9522 32.5167 17.6463C32.8227 17.3404 32.9962 16.9265 32.9999 16.4939C33.0037 16.0613 32.8374 15.6445 32.5368 15.3333L30.2037 17.6664ZM16.5203 1.64967L17.6868 0.483103C17.3774 0.173772 16.9578 0 16.5203 0C16.0828 0 15.6631 0.173772 15.3537 0.483103L16.5203 1.64967ZM0.503725 15.3333C0.346134 15.4855 0.220433 15.6675 0.133958 15.8688C0.0474835 16.0702 0.0019661 16.2867 6.22986e-05 16.5058C-0.0018415 16.7248 0.0399064 16.9421 0.12287 17.1449C0.205833 17.3477 0.328351 17.5319 0.483274 17.6868C0.638197 17.8418 0.822422 17.9643 1.0252 18.0472C1.22798 18.1302 1.44525 18.172 1.66434 18.1701C1.88342 18.1682 2.09994 18.1226 2.30124 18.0362C2.50255 17.9497 2.68462 17.824 2.83683 17.6664L0.503725 15.3333ZM8.27028 33H24.7703V29.7H8.27028V33ZM29.7203 28.0499V13.1998H26.4203V28.0499H29.7203ZM6.62028 28.0499V13.1998H3.32028V28.0499H6.62028ZM32.5368 15.3333L17.6868 0.483103L15.3537 2.81623L30.2037 17.6664L32.5368 15.3333ZM15.3537 0.483103L0.503725 15.3333L2.83683 17.6664L17.6868 2.81623L15.3537 0.483103ZM24.7703 33C26.0831 33 27.3421 32.4785 28.2705 31.5502C29.1988 30.6218 29.7203 29.3628 29.7203 28.0499H26.4203C26.4203 28.4876 26.2464 28.9072 25.937 29.2167C25.6276 29.5261 25.2079 29.7 24.7703 29.7V33ZM8.27028 29.7C7.83267 29.7 7.41298 29.5261 7.10355 29.2167C6.79411 28.9072 6.62028 28.4876 6.62028 28.0499H3.32028C3.32028 29.3628 3.84179 30.6218 4.7701 31.5502C5.6984 32.4785 6.95745 33 8.27028 33V29.7Z" fill="#FFECD2"/>
</svg>
