<svg width="864" height="365" viewBox="0 0 864 365" fill="none" xmlns="http://www.w3.org/2000/svg">
<g clip-path="url(#clip0_110_60)">
<path d="M861.266 2.90863H2.72144V272.705H861.266V2.90863Z" fill="#FCB85E" stroke="black" stroke-width="4.47" stroke-miterlimit="10"/>
<path d="M127.515 272.705C123.524 272.705 115.665 256.903 114.201 254.288C104.719 237.337 99.9228 218.064 93.3817 199.866C89.7206 189.686 87.0724 178.626 89.5375 168.079C93.0278 153.145 105.768 140.043 112.712 126.441C132.775 87.1375 139.352 42.4811 159.049 2.89642C159.049 2.89642 761.27 2.89642 764.077 2.89642C766.176 2.95753 770.606 21.0939 771.497 23.477C782.138 52.1603 804.117 75.2585 811.049 105.579C817.15 132.258 815.613 160.624 805.264 186.069C796.673 207.187 776.146 252.259 793.048 272.705C793.048 272.705 128.272 272.705 127.539 272.705H127.515Z" fill="#56111D" stroke="#0B0909" stroke-width="4.69" stroke-miterlimit="10"/>
<path d="M214.685 65.5792C214.685 65.5792 186.287 148.085 198.515 166.27C210.743 184.455 300.171 266.876 341.7 275.663C383.228 284.45 418.924 283.545 425.66 275.663C432.397 267.78 520.787 270.407 546.634 287.725C572.481 305.042 597.523 302.513 644.336 285.012C691.149 267.499 719.29 281.15 733.886 240.612C748.481 200.062 756.352 185.629 749.799 165.195C743.246 144.761 743.233 120.807 729.968 107.547C716.703 94.287 722.866 65.1148 641.297 69.0134C559.741 72.9242 425.599 71.6165 372.099 68.769C318.598 65.9092 214.685 65.5914 214.685 65.5914V65.5792Z" fill="#F8D7D7"/>
<path d="M564.268 100.446C548.184 114.134 532.087 127.822 516.003 141.51C516.003 141.51 468.08 196.347 467.848 243.374C467.824 247.798 467.042 252.014 466.469 252.014C458.915 252.014 460.428 209.289 461.075 203.887C464.297 177.367 478.148 152.888 496.087 133.505C504.922 123.972 515.112 114.819 526.327 108.17C532.063 104.773 538.018 102.328 544.596 101.082C547.989 100.434 562.267 102.121 564.244 100.434L564.268 100.446Z" fill="#E28DA1"/>
<path d="M745.918 81.7846C755.437 118.351 755.62 145.91 754.437 162.763C753.741 172.686 752.484 180.068 747.151 186.227C736.387 198.644 700.179 201.064 700.179 201.064C708.283 192.998 719.156 179.921 725.307 161.284C728.504 151.592 728.687 145.665 731.115 132.882C733.422 120.709 737.632 103.074 745.906 81.7846H745.918Z" fill="#E28DA1"/>
<path d="M176.634 65.9703C176.634 65.9703 168.055 115.967 170.227 140.178C172.4 164.376 175.182 187.694 175.182 187.694C175.182 187.694 412.212 234.196 421.279 243.093C421.621 243.423 421.67 243.411 421.67 243.435C421.072 245.085 287.98 230.175 216.125 141.473C194.293 114.525 182.919 86.6976 176.634 65.9826V65.9703Z" fill="#E28DA1"/>
<path d="M327.153 77.5438C379.933 102.879 399.276 131.88 407.086 153.939C407.086 153.939 412.139 168.201 415.934 248.226C435.399 239.952 448.627 241.211 457.267 244.095C467.104 247.37 474.145 253.823 477.904 251.049C481.406 248.458 478.343 240.539 476.976 231.385C474.23 212.809 479.844 198.07 487.276 178.54C488.081 176.414 495.855 156.42 510.268 137.685C549.77 86.3554 617.427 72.7898 616.182 64.4304C614.974 56.3766 550.185 55.8756 327.141 77.5561L327.153 77.5438Z" fill="#F9CDCD"/>
<path d="M178.343 102.585C180.588 92.3071 176.915 82.2368 176.537 72.0198C176.073 59.4442 181.479 50.4738 188.594 40.599C197.844 27.7667 207.546 15.2399 217.468 2.90863C217.468 2.90863 692.869 3.69079 693.248 3.70301C697.836 3.70301 710.711 21.265 713.908 24.8702C720.864 32.7163 727.357 41.0145 732.861 49.9482C750.775 79.0593 758.159 107.217 731.14 132.894L700.606 89.2762C700.606 89.2762 180.051 94.8614 178.355 102.597L178.343 102.585Z" fill="#F9CDCD"/>
<path d="M327.385 88.0052C343.006 102.231 358.614 116.456 374.235 130.682C374.235 130.682 420.279 187.12 418.912 234.135C418.777 238.559 419.424 242.8 419.998 242.824C427.552 243.081 427.491 200.331 427.015 194.905C424.684 168.287 411.675 143.343 394.407 123.374C385.901 113.548 376.028 104.052 365.033 97.0368C359.407 93.4437 353.549 90.7917 347.008 89.3251C343.64 88.5674 329.313 89.7651 327.397 88.0175L327.385 88.0052Z" fill="#E28DA1"/>
<path d="M534.785 177.77C534.785 177.77 566.819 98.0634 658.041 170.584C658.041 170.584 606.053 230.688 534.785 177.77Z" fill="#C6C0BD"/>
<path d="M534.785 177.77C540.142 161.296 552.504 146.679 568.625 139.799C583.819 133.322 601.367 134.519 616.683 139.823C635.342 146.081 651.817 157.593 666.876 169.814C647.289 193.511 615.609 208.128 584.795 203.178C566.038 200.355 548.575 190.493 534.785 177.758V177.77ZM534.785 177.77C563.317 194.514 593.435 201.797 624.603 187.327C635.33 182.268 645.325 175.253 653.44 166.588L654.258 175.351C644.873 168.006 635.122 161.211 624.774 155.748C614.669 150.468 603.625 146.203 592.215 145.127C568.21 142.182 546.732 157.324 534.785 177.758V177.77Z" fill="black"/>
<path d="M616.365 150.37C616.072 150.199 615.731 150.089 615.413 149.991C611.411 148.708 607.408 147.425 603.32 146.496C596.571 144.969 589.652 144.431 582.769 143.893C582.208 143.844 581.634 143.808 581.097 143.966C580.426 144.162 579.889 144.651 579.401 145.14C571.444 153.035 569.662 165.622 575.703 175.228C580.023 182.109 588.029 186.496 596.144 186.447C604.259 186.399 612.204 181.901 616.451 174.972C620.685 168.042 621.076 158.901 617.427 151.641C617.232 151.262 617.037 150.884 616.719 150.603C616.609 150.517 616.5 150.431 616.378 150.37H616.365Z" fill="#2C190F" stroke="black" stroke-width="2.34" stroke-miterlimit="10"/>
<path d="M524.887 121.113C526.437 117.984 528.524 115.112 531.038 112.68C536.31 107.584 542.961 103.282 549.221 99.5421C563.438 91.0361 579.169 85.2799 595.18 81.2469C620.283 74.9163 647.887 71.5433 673.368 77.4828C702.644 84.3145 731.604 108.586 729.346 141.29C729.456 139.665 718.167 131.293 716.556 129.802C704.023 118.326 691.429 111.702 673.929 111.69C641.651 111.69 608.396 109.686 576.374 114.183C557.361 116.86 538.543 122.225 521.885 131.794C522.532 131.415 523.948 123.129 524.57 121.785C524.68 121.565 524.777 121.333 524.887 121.113Z" fill="#26150D"/>
<path d="M374.234 130.682C370.964 128.629 367.767 119.243 365.472 115.833C361.97 110.651 358.028 105.714 353.427 101.461C339.332 88.433 321.259 86.6365 303.368 82.8357C286.161 79.1815 269.357 72.8631 251.784 72.1787C236.127 71.5677 220.628 75.4663 205.837 80.6359C194.5 84.5955 182.394 90.3273 178.367 102.597C174.657 113.865 177.952 127.272 186.812 135.24C189.717 124.474 195.806 114.024 205.581 108.671C216.503 102.695 229.805 104.064 242.167 105.592C266.977 108.659 291.799 111.739 316.609 114.806C336.562 117.275 357.223 120.001 374.259 130.682H374.234Z" fill="#26150D"/>
<path d="M375.992 187.144C375.992 187.144 294.789 103.221 241.728 180.386C241.728 180.386 284.416 224.48 375.992 187.144Z" fill="#C6C0BD"/>
<path d="M375.992 187.144C350.694 167.138 314.071 145.115 280.999 155.43C280.218 155.735 276.52 157.153 275.813 157.459C274.287 158.265 272.359 159.182 270.846 159.976C269.137 161.162 266.855 162.384 265.232 163.692C259.179 168.238 253.712 173.799 249.221 179.909L246.426 183.624L245.828 176.426C253.846 183.734 263.89 188.623 274.104 192.069C307.31 202.934 343.14 196.946 376.004 187.144H375.992ZM375.992 187.144C336.562 208.03 284.66 216.243 245.45 190.578C241.399 187.963 237.603 184.443 234.198 181.009L237.042 177.159C245.072 165.671 255.054 155.32 267.893 149.124C268.698 148.733 270.748 147.767 271.529 147.413C272.359 147.058 276.935 145.543 277.875 145.201L283.098 143.979C284.599 143.539 286.832 143.465 288.382 143.196C322.015 139.823 355.05 162.677 375.979 187.156L375.992 187.144Z" fill="black"/>
<path d="M355.331 154.831C325.14 140.19 289.224 130.89 256.958 143.893C247.195 147.926 238.506 153.682 230.306 160.416C235.639 153.682 242.168 147.792 249.477 143.184C282.293 122.726 326.055 132.454 355.343 154.831H355.331Z" fill="black"/>
<path d="M662.519 157.679C638.442 144.235 608.47 128.531 580.328 131.342C572.127 132.161 564.488 135.033 557.349 139.298C560.717 135.864 564.744 133.028 569.15 130.804C599.866 116.615 639.747 136.377 662.531 157.666L662.519 157.679Z" fill="black"/>
<path d="M750.19 99.921C751.727 122.604 753.265 145.299 754.803 167.981C665.411 177.709 574.873 187.706 490.876 219.836C470.032 227.804 448.603 237.3 426.38 235.259C409.857 233.744 394.676 225.971 379.201 219.958C358.846 212.039 332.608 207.224 279.901 198.192C250.686 193.181 213.562 187.829 170.032 183.991C170.74 155.308 171.46 126.612 172.168 97.929C159.537 106.068 153.985 114.745 151.251 120.758C141.439 142.28 153.326 160.917 139.572 180.092C136.546 184.309 134.142 185.971 131.518 191.629C130.883 192.986 123.415 209.656 130.664 221.987C134.642 228.757 140.988 227.45 147.016 233.964C156.791 244.535 162.735 258.382 167.238 271.886C174.487 293.579 180.576 317.52 198.381 331.856C208.62 340.093 221.568 344.065 234.284 347.34C258.716 353.622 283.623 357.997 308.701 360.698C338.588 363.912 373.637 362.592 392.027 338.785C408.722 317.178 407.062 281.969 430.603 268.159C444.857 259.787 465.224 264.309 474.621 277.924C480.381 286.271 482.016 296.732 486.117 306.02C495.318 326.857 516.65 340.374 538.812 345.483C576.289 354.123 615.816 347.316 652.122 336.573C675.321 329.705 698.422 319.158 714.787 300.887C728.101 286.026 732.995 266.472 741.305 248.8C749.03 232.363 766.518 220.533 769.789 202.286C774.023 178.638 770.496 150.615 767.897 126.893C766.616 115.21 761.893 100.605 750.177 99.9455L750.19 99.921Z" fill="#E47925" stroke="black" stroke-width="5" stroke-miterlimit="10"/>
<path d="M492.56 289.546C490.339 284.975 488.435 280.233 486.861 275.394C473.852 235.369 531.636 225.336 557.825 218.944C601.928 208.177 646.63 199.793 691.637 193.866C704.817 192.13 721.23 190.615 729.334 203.374C736.985 215.424 734.142 233.218 731.689 246.283C724.611 283.9 691.49 306.485 657.809 318.865C623.504 331.477 573.079 344.138 537.579 331.905C516.894 324.768 501.884 308.697 492.572 289.57L492.56 289.546Z" fill="#FCB85E"/>
<path d="M492.304 289.668C481.736 268.305 479.698 251.562 501.371 236.701C518.188 225.678 538.482 221.095 557.593 216.402C570.443 213.151 583.391 210.303 596.388 207.725C628.63 201.467 661.97 196.921 694.541 192.607C735.094 186.557 739.658 212.98 733.702 246.344C733.349 247.859 732.482 252.21 732.092 253.823C731.006 257.05 730.139 260.362 728.675 263.454C728.357 264.297 727.479 266.179 727.161 266.986C726.93 267.389 724.477 272.033 724.147 272.62C722.805 274.795 721.414 276.946 719.973 279.06C718.851 280.551 717.203 282.641 716.081 284.12C697.055 306.509 669.402 319.097 641.871 327.493C619.575 334.361 596.315 339.384 572.884 339.238C560.351 339.115 547.525 337.282 535.785 332.687C516.186 324.951 501.286 308.391 492.304 289.668ZM492.816 289.424C514.075 331.563 548.672 338.663 592.288 332.675C618.062 328.972 643.665 321.566 667.681 311.618C691.088 301.486 713.75 285.476 724.513 261.62C727.247 255.901 728.98 249.387 730.261 243.179C732.641 230.737 734.935 216.866 728.968 205.219C722.61 192.717 706.952 192.729 694.737 194.33C681.642 195.98 668.56 198.009 655.563 200.331C616.585 207.37 578.083 216.952 539.458 225.678C520.165 230.554 489.277 237.997 485.726 261.132C484.457 271.043 488.814 280.576 492.804 289.412L492.816 289.424Z" fill="black"/>
<path d="M395.871 299.69C398.044 295.363 399.911 290.854 401.473 286.258C403.743 279.561 403.901 273.719 402.486 268.623C401.29 264.285 397.067 248.971 334.5 231.629C306.029 223.735 283.354 221.278 238.006 216.353C201.176 212.357 188.264 212.405 180.771 221.168C172.973 230.285 175.268 243.863 177.842 259.066C180.186 272.925 185.482 304.236 211.122 323.68C223.862 333.347 241.997 335.559 278.266 340.008C316.255 344.664 335.598 346.839 352.463 339.494C352.463 339.494 381.3 328.666 395.847 299.677L395.871 299.69Z" fill="#FCB85E"/>
<path d="M395.627 299.567C401.583 287.493 408.136 270.713 396.225 260.129C386.548 251.55 374.1 246.857 362.067 242.531C346.654 237.349 330.607 232.754 314.766 229.283C293.337 224.602 271.59 221.718 249.843 218.858C238.933 217.453 228.023 216.047 217.089 215.204C211.622 214.764 206.142 214.52 200.7 214.727C195.416 214.935 189.839 215.644 185.348 218.516C171.204 228.415 178.257 249.375 180.552 263.564C184.164 281.981 191.12 300.24 204.202 313.976C207.924 317.655 211.854 321.272 216.381 323.924C228.036 330.548 241.813 332.027 254.932 334.092C265.769 335.51 293.422 339.115 303.905 340.337C314.669 341.474 325.567 342.696 336.33 341.792C346.654 341.022 356.393 337.001 365.167 331.648C377.981 323.961 388.757 312.889 395.603 299.567H395.627ZM396.115 299.812C387.182 317.691 370.427 332.944 353.037 340.79C332.645 350.041 308.482 345.91 286.942 343.869C276.008 342.586 265.086 341.425 254.139 339.873C237.957 337.417 219.493 335.07 206.643 323.423C189.155 308.782 180.259 286.332 176.842 264.248C174.926 248.788 168.665 227.266 184.286 216.842C188.606 214.165 193.609 213.456 198.552 213.102C204.788 212.76 211.024 213.139 217.211 213.542C228.207 214.324 239.141 215.522 250.112 216.451C272.054 218.467 294.142 220.105 315.779 224.553C326.628 226.778 337.306 229.76 347.838 233.181C363.532 238.473 379.396 244.608 392.772 254.654C394.944 256.377 397.104 258.321 398.873 260.472C408.685 272.057 401.973 287.994 396.115 299.812Z" fill="black"/>
<path d="M595.998 177.147C604.119 177.147 610.703 170.554 610.703 162.42C610.703 154.287 604.119 147.694 595.998 147.694C587.876 147.694 581.292 154.287 581.292 162.42C581.292 170.554 587.876 177.147 595.998 177.147Z" fill="black" stroke="#2C190F" stroke-width="1.44" stroke-miterlimit="10"/>
<path d="M604.479 161.064C608.152 161.064 611.13 158.082 611.13 154.403C611.13 150.725 608.152 147.743 604.479 147.743C600.806 147.743 597.828 150.725 597.828 154.403C597.828 158.082 600.806 161.064 604.479 161.064Z" fill="#898FB3"/>
<path d="M649.181 165.488C661.006 166.783 673.734 167.162 685.022 162.86C688.696 161.321 692.247 158.986 694.297 155.247C693.138 159.365 689.941 162.787 686.377 165.292C675.272 172.613 661.921 175.167 648.888 176.622L649.168 165.476L649.181 165.488Z" fill="black"/>
<path d="M643.347 152.314C655.087 154.22 667.779 155.259 679.287 151.544C683.033 150.199 686.707 148.048 688.952 144.419C685.877 152.778 676.431 156.799 668.475 159.267C659.981 161.761 651.377 163.019 642.505 163.423L643.36 152.314H643.347Z" fill="black"/>
<path d="M627.898 144.712C639.638 146.618 652.329 147.657 663.837 143.942C667.584 142.598 671.257 140.447 673.502 136.817C670.427 145.176 660.982 149.197 653.025 151.666C644.531 154.159 635.928 155.418 627.056 155.821L627.91 144.712H627.898Z" fill="black"/>
<path d="M621.857 144.516C630.143 142.145 638.954 138.858 645.373 132.845C647.436 130.792 649.193 128.225 649.547 125.133C650.108 131.611 645.105 137.208 640.614 141.314C635.745 145.628 630.546 149.063 624.737 152.13L621.857 144.516Z" fill="black"/>
<path d="M346.008 165.537C345.764 165.072 345.361 164.706 344.958 164.364C341.907 161.76 338.332 159.842 334.61 158.363C328.813 156.078 322.662 154.855 316.548 153.646C311.069 152.558 305.577 151.482 300.012 151.018C299.378 150.969 298.731 150.92 298.133 151.14C295.863 151.947 294.606 156.469 294.021 158.546C293.191 161.455 292.886 164.498 293.056 167.517C293.398 173.542 295.68 179.494 299.732 184.003C306.785 191.861 318.733 194.868 328.654 191.275C338.576 187.682 345.849 177.721 346.252 167.162C346.264 166.698 346.276 166.209 346.105 165.769C346.081 165.684 346.044 165.61 346.008 165.537Z" fill="#2C190F" stroke="black" stroke-width="2.87" stroke-miterlimit="10"/>
<path d="M319.367 183.148C328.203 183.148 335.366 175.974 335.366 167.126C335.366 158.277 328.203 151.104 319.367 151.104C310.531 151.104 303.368 158.277 303.368 167.126C303.368 175.974 310.531 183.148 319.367 183.148Z" fill="black"/>
<path d="M333.56 175.485C337.233 175.485 340.211 172.503 340.211 168.824C340.211 165.146 337.233 162.164 333.56 162.164C329.887 162.164 326.909 165.146 326.909 168.824C326.909 172.503 329.887 175.485 333.56 175.485Z" fill="#898FB3"/>
<path d="M247.195 185.323C233.466 182.329 207.619 174.776 204.349 159.17C209.438 170.267 225.278 172.503 236.102 173.762C240.02 174.116 244.254 174.336 248.111 174.226L247.195 185.335V185.323Z" fill="black"/>
<path d="M252.577 175.815C238.616 174.165 212.159 169.167 207.399 153.951C211.646 161.406 220.469 163.472 228.292 164.657C236.212 165.684 244.523 165.586 252.418 164.681L252.589 175.827L252.577 175.815Z" fill="black"/>
<path d="M264.451 164.486C250.405 164.046 223.618 161.333 217.565 146.594C222.434 153.658 231.404 154.953 239.3 155.454C247.281 155.797 255.543 154.99 263.341 153.401L264.463 164.486H264.451Z" fill="black"/>
<path d="M267.478 158.937C257.483 155.882 239.397 149.197 237.725 137.501C241.008 146.007 252.052 148.293 260.046 149.894C262.938 150.383 265.989 150.761 268.759 150.896L267.478 158.937Z" fill="black"/>
<path d="M279.584 154.831C271.468 150.04 257.263 140.703 258.154 130.095C259.448 139.946 274.104 145.421 282.354 148.122L279.596 154.831H279.584Z" fill="black"/>
<path d="M294.325 149.674C286.21 144.883 272.005 135.546 272.896 124.938C274.19 134.788 288.846 140.263 297.096 142.964L294.338 149.674H294.325Z" fill="black"/>
<path d="M303.21 148.953C298.109 142.451 289.566 130.45 293.618 122.066C291.58 130.535 301.696 139.53 307.566 144.37L303.197 148.94L303.21 148.953Z" fill="black"/>
<path d="M339.796 158.632C344.653 157.202 352.451 154.88 353.671 149.234C353.818 150.774 353.183 152.35 352.305 153.658C349.522 157.618 345.385 160.196 341.163 162.433L339.796 158.632Z" fill="black"/>
<path d="M329.777 152.546C336.294 150.7 347.484 147.193 348.936 139.567C349.144 141.693 348.277 143.869 347.069 145.69C343.213 151.14 337.502 154.709 331.668 157.776L329.777 152.534V152.546Z" fill="black"/>
<path d="M318.83 149.173C325.347 147.327 336.538 143.82 337.99 136.194C338.197 138.32 337.331 140.496 336.123 142.317C332.266 147.767 326.555 151.336 320.722 154.403L318.83 149.16V149.173Z" fill="black"/>
<path d="M311.13 151.336C315.45 146.117 322.687 136.878 319.575 129.777C322.345 133.261 321.613 138.345 320.612 142.39C319.465 146.692 317.805 150.627 315.657 154.587L311.142 151.336H311.13Z" fill="black"/>
<path d="M610.178 139.322C617.244 137.208 629.545 133.102 630.961 124.767C631.229 132.209 624.005 137.367 618.574 141.302C616.573 142.646 614.584 143.869 612.338 145.03L610.178 139.322Z" fill="black"/>
<path d="M594.655 136.108C601.721 133.994 614.022 129.888 615.438 121.553C615.706 128.995 608.482 134.153 603.051 138.088C601.038 139.432 599.061 140.654 596.815 141.815L594.655 136.108Z" fill="black"/>
<path d="M559.948 151.421C556.556 149.49 551.479 146.716 551.406 142.341C552.358 146.325 557.459 147.755 560.9 148.818L559.948 151.421Z" fill="black"/>
<path d="M569.797 146.753C564.659 143.661 556.141 138.222 556.568 131.489C557.52 137.734 566.27 140.838 571.505 142.61L569.797 146.753Z" fill="black"/>
<path d="M579.608 140.227C574.47 137.135 565.952 131.696 566.379 124.95C567.331 131.195 576.081 134.299 581.317 136.071L579.608 140.214V140.227Z" fill="black"/>
<path d="M588.566 141.327C587.126 135.46 584.917 125.683 589.993 121.161C586.259 126.307 590.237 134.605 592.703 139.603L588.566 141.327Z" fill="black"/>
<path d="M693.248 3.69081C714.055 42.5788 735.216 81.4913 754.339 121.186C759.843 132.613 765.346 144.027 770.85 155.454C773.45 160.844 776.073 166.343 776.915 172.259C778.978 186.655 766.677 200.221 758.94 211.086C751.91 220.948 746.37 231.898 742.892 243.521C742.001 246.503 737.327 272.705 735.179 272.705H793.012C790.535 272.705 788.973 266.338 788.619 264.847C785.372 251.232 789.375 235.332 792.56 222.146C795.99 207.957 799.895 193.194 805.496 179.762C814.405 158.4 819.14 135.558 815.625 112.436C813.489 98.4177 808.718 84.7911 801.408 72.6187C794.098 60.4341 783.701 50.4615 776.256 38.3625C770.326 28.7199 761.734 14.7999 764.053 2.89642L693.223 3.67858L693.248 3.69081Z" fill="#56111D" stroke="#0B0909" stroke-width="4.69" stroke-miterlimit="10"/>
<path d="M212.391 4.85182C212.464 4.85182 212.611 4.86404 212.733 4.97403C214.173 6.29392 205.484 17.953 204.117 19.8229C190.302 38.7902 186.568 62.365 177.489 83.5567C166.957 108.121 148.102 128.348 139.267 153.694C132.25 173.823 132.47 196.114 137.925 216.585C140.5 226.277 144.405 235.626 148.798 244.621C150.568 248.238 161.453 272.925 165.139 272.937C142.623 272.827 120.107 272.73 97.5919 272.62C102.266 272.62 99.3126 250.585 99.0563 247.933C97.7872 234.892 92.1003 224.724 86.8284 212.968C75.2716 187.217 73.6485 154.807 87.0358 129.399C94.358 115.503 104.609 103.318 112.92 89.9606C129.26 63.6605 138.742 34.8917 141.574 4.05743C165.187 4.31408 188.789 4.58295 212.403 4.83959L212.391 4.85182Z" fill="#56111D" stroke="#0B0909" stroke-width="4.69" stroke-miterlimit="10"/>
<path d="M161.526 42.0167C156.56 70.1378 137.937 111.458 116.239 130.266C122.658 114.782 129.114 99.9454 136.473 85.0233C143.941 70.15 151.556 55.5578 161.526 42.0167Z" fill="#401119"/>
<path d="M729.48 20.2751C739.695 32.2153 747.981 44.9742 756.56 57.9165C764.932 70.9933 773.23 83.7401 780.003 97.9289C756.499 80.5625 735.899 48.8239 729.48 20.2873V20.2751Z" fill="#401119"/>
<path d="M762.015 271.874C757.036 255.18 763.967 227.853 780.003 219.066C774.755 236.799 770.862 255.388 762.015 271.874Z" fill="#401119"/>
<path d="M132.995 271.874C125.367 258.357 122.231 243.484 119.436 228.513C118.558 224.065 117.972 218.088 116.251 213.811C121.291 216.072 124.269 221.425 126.722 226.069C133.239 239.964 136.045 256.695 133.007 271.874H132.995Z" fill="#401119"/>
</g>
<defs>
<clipPath id="clip0_110_60">
<rect width="864" height="365" fill="white"/>
</clipPath>
</defs>
</svg>
