<svg width="34" height="32" viewBox="0 0 34 32" fill="none" xmlns="http://www.w3.org/2000/svg">
<path d="M32.5 8.29592V19.623C32.5004 20.5157 32.3289 21.3997 31.9953 22.2245C31.6617 23.0493 31.1725 23.7988 30.5557 24.4301C29.9388 25.0614 29.2065 25.5621 28.4004 25.9037C27.5944 26.2452 26.7304 26.4209 25.858 26.4207H21.4294L17.7766 30.1581C17.677 30.2661 17.5569 30.3521 17.4236 30.4109C17.2904 30.4697 17.1468 30.5 17.0017 30.5C16.8566 30.5 16.713 30.4697 16.5797 30.4109C16.4464 30.3521 16.3263 30.2661 16.2267 30.1581L12.5739 26.4207H8.14202C7.26964 26.4207 6.4058 26.2448 5.59984 25.9032C4.79389 25.5616 4.0616 25.0608 3.44481 24.4296C2.82802 23.7983 2.33881 23.049 2.00511 22.2242C1.67142 21.3995 1.49978 20.5156 1.5 19.623V8.29592C1.5 6.49353 2.19978 4.76496 3.4454 3.49048C4.69102 2.216 6.38045 1.5 8.14202 1.5H25.8563C27.6179 1.5 29.3073 2.216 30.5529 3.49048C31.7985 4.76496 32.5 6.49353 32.5 8.29592Z" stroke="#FFECD2" stroke-width="3" stroke-linecap="round" stroke-linejoin="round"/>
</svg>
