<svg width="39" height="39" viewBox="0 0 39 39" fill="none" xmlns="http://www.w3.org/2000/svg">
<path d="M1.5 33C1.5 30.6131 2.44821 28.3239 4.13604 26.636C5.82387 24.9482 8.11305 24 10.5 24H28.5C30.8869 24 33.1761 24.9482 34.864 26.636C36.5518 28.3239 37.5 30.6131 37.5 33C37.5 34.1935 37.0259 35.3381 36.182 36.182C35.3381 37.0259 34.1935 37.5 33 37.5H6C4.80653 37.5 3.66193 37.0259 2.81802 36.182C1.97411 35.3381 1.5 34.1935 1.5 33Z" stroke="#FFECD2" stroke-width="3" stroke-linejoin="round"/>
<path d="M19.5 15C23.2279 15 26.25 11.9779 26.25 8.25C26.25 4.52208 23.2279 1.5 19.5 1.5C15.7721 1.5 12.75 4.52208 12.75 8.25C12.75 11.9779 15.7721 15 19.5 15Z" stroke="#FFECD2" stroke-width="3"/>
</svg>
