<svg width="277" height="281" viewBox="0 0 277 281" fill="none" xmlns="http://www.w3.org/2000/svg">
<g filter="url(#filter0_d_142_770)">
<rect width="268" height="268" rx="134" fill="#570D1B" shape-rendering="crispEdges"/>
<rect x="0.5" y="0.5" width="267" height="267" rx="133.5" stroke="#2C2B2B" shape-rendering="crispEdges"/>
<path d="M94.25 129.583C94.25 112.928 94.25 104.598 99.4263 99.4263C104.603 94.2544 112.928 94.25 129.583 94.25H138.417C155.072 94.25 163.402 94.25 168.574 99.4263C173.746 104.603 173.75 112.928 173.75 129.583V138.417C173.75 155.072 173.75 163.402 168.574 168.574C163.397 173.746 155.072 173.75 138.417 173.75H129.583C112.928 173.75 104.598 173.75 99.4263 168.574C94.2544 163.397 94.25 155.072 94.25 138.417V129.583Z" stroke="#FFECD2" stroke-width="5"/>
<path fill-rule="evenodd" clip-rule="evenodd" d="M164.908 144.114L163.388 142.599L163.322 142.529C161.551 140.762 160.125 139.335 158.87 138.28C157.581 137.193 156.326 136.363 154.855 135.921C152.776 135.294 150.557 135.294 148.478 135.921C147.007 136.363 145.753 137.193 144.459 138.28C143.209 139.335 141.782 140.762 140.011 142.529L139.945 142.599C138.62 143.924 137.736 144.808 137.016 145.399C136.305 145.987 135.996 146.084 135.868 146.106C135.335 146.199 134.787 146.094 134.327 145.81C134.221 145.739 133.969 145.536 133.527 144.728C132.917 143.523 132.357 142.292 131.849 141.04L131.615 140.492L131.557 140.364C129.95 136.61 128.669 133.62 127.424 131.407C126.156 129.155 124.747 127.366 122.72 126.35C120.903 125.44 118.87 125.049 116.846 125.22C114.58 125.41 112.61 126.545 110.596 128.166C108.617 129.76 106.316 132.057 103.428 134.95L103.331 135.042L103.083 135.294V141.539L106.453 138.165C109.461 135.162 111.594 133.033 113.365 131.606C115.132 130.188 116.258 129.703 117.212 129.619C118.429 129.516 119.65 129.751 120.741 130.299C121.598 130.727 122.464 131.597 123.572 133.572C124.69 135.559 125.878 138.319 127.552 142.228L127.79 142.78L127.834 142.882C128.514 144.472 129.089 145.815 129.645 146.839C130.219 147.895 130.926 148.897 132.004 149.564C133.386 150.42 135.035 150.738 136.637 150.456C137.882 150.236 138.907 149.564 139.83 148.8C140.731 148.058 141.764 147.025 142.992 145.797L143.067 145.722C144.922 143.867 146.216 142.577 147.307 141.658C148.376 140.753 149.101 140.347 149.754 140.148C151 139.773 152.334 139.773 153.579 140.148C154.233 140.347 154.957 140.753 156.026 141.654C157.117 142.577 158.411 143.867 160.266 145.722L164.811 150.262C164.868 148.451 164.894 146.42 164.908 144.114Z" fill="#FFECD2"/>
<path d="M153.875 120.75C157.534 120.75 160.5 117.784 160.5 114.125C160.5 110.466 157.534 107.5 153.875 107.5C150.216 107.5 147.25 110.466 147.25 114.125C147.25 117.784 150.216 120.75 153.875 120.75Z" fill="#FFECD2"/>
</g>
<defs>
<filter id="filter0_d_142_770" x="0" y="0" width="277" height="281" filterUnits="userSpaceOnUse" color-interpolation-filters="sRGB">
<feFlood flood-opacity="0" result="BackgroundImageFix"/>
<feColorMatrix in="SourceAlpha" type="matrix" values="0 0 0 0 0 0 0 0 0 0 0 0 0 0 0 0 0 0 127 0" result="hardAlpha"/>
<feOffset dx="9" dy="13"/>
<feComposite in2="hardAlpha" operator="out"/>
<feColorMatrix type="matrix" values="0 0 0 0 0.134615 0 0 0 0 0.132415 0 0 0 0 0.132415 0 0 0 1 0"/>
<feBlend mode="normal" in2="BackgroundImageFix" result="effect1_dropShadow_142_770"/>
<feBlend mode="normal" in="SourceGraphic" in2="effect1_dropShadow_142_770" result="shape"/>
</filter>
</defs>
</svg>
