<svg width="32" height="35" viewBox="0 0 32 35" fill="none" xmlns="http://www.w3.org/2000/svg">
<path d="M20.2688 1.5H14.0125C13.1829 1.5 12.3873 1.82957 11.8006 2.41621C11.214 3.00285 10.8844 3.79851 10.8844 4.62814V21.8329C10.8844 22.6625 11.214 23.4582 11.8006 24.0448C12.3873 24.6315 13.1829 24.961 14.0125 24.961H26.5251C27.3547 24.961 28.1504 24.6315 28.737 24.0448C29.3237 23.4582 29.6532 22.6625 29.6532 21.8329V10.8844" stroke="#FFECD2" stroke-width="3" stroke-linecap="round" stroke-linejoin="round"/>
<path d="M4.62814 9.32036C3.79851 9.32036 3.00285 9.64993 2.41621 10.2366C1.82957 10.8232 1.5 11.6189 1.5 12.4485V29.6533C1.5 30.4829 1.82957 31.2786 2.41621 31.8652C3.00285 32.4518 3.79851 32.7814 4.62814 32.7814H17.1407C17.6898 32.7814 18.2292 32.6368 18.7047 32.3623C19.1802 32.0877 19.5751 31.6929 19.8497 31.2173M22.9371 2.60424C22.5873 2.25314 22.1714 1.9748 21.7134 1.78527C21.2555 1.59575 20.7645 1.4988 20.2688 1.50001V9.32036C20.2688 9.73518 20.4336 10.133 20.7269 10.4263C21.0203 10.7196 21.4181 10.8844 21.8329 10.8844H29.6533C29.6545 10.3888 29.5575 9.89782 29.368 9.43984C29.1785 8.98187 28.9001 8.56596 28.549 8.21613L22.9371 2.60424Z" stroke="#FFECD2" stroke-width="3" stroke-linecap="round" stroke-linejoin="round"/>
</svg>
