<svg width="38" height="27" viewBox="0 0 38 27" fill="none" xmlns="http://www.w3.org/2000/svg">
<path fill-rule="evenodd" clip-rule="evenodd" d="M7.22222 6C7.22222 4.4087 7.83095 2.88258 8.91449 1.75736C9.99804 0.632141 11.4676 0 13 0C14.5324 0 16.002 0.632141 17.0855 1.75736C18.1691 2.88258 18.7778 4.4087 18.7778 6C18.7778 7.5913 18.1691 9.11742 17.0855 10.2426C16.002 11.3679 14.5324 12 13 12C11.4676 12 9.99804 11.3679 8.91449 10.2426C7.83095 9.11742 7.22222 7.5913 7.22222 6ZM7.22222 15C5.30677 15 3.46977 15.7902 2.11534 17.1967C0.76091 18.6032 0 20.5109 0 22.5C0 23.6935 0.456546 24.8381 1.2692 25.682C2.08186 26.5259 3.18406 27 4.33333 27H21.6667C22.8159 27 23.9181 26.5259 24.7308 25.682C25.5435 24.8381 26 23.6935 26 22.5C26 20.5109 25.2391 18.6032 23.8847 17.1967C22.5302 15.7902 20.6932 15 18.7778 15H7.22222Z" fill="#570D1B"/>
<path d="M11.5 15.5H23.5C25.3565 15.5 27.1374 16.2371 28.4502 17.5498C29.7629 18.8626 30.5 20.6435 30.5 22.5L30.4951 22.6982C30.4461 23.6869 30.0314 24.6248 29.3281 25.3281C28.578 26.0783 27.5609 26.5 26.5 26.5H8.5C7.43913 26.5 6.42202 26.0783 5.67188 25.3281C4.92173 24.578 4.5 23.5609 4.5 22.5C4.5 20.6435 5.23705 18.8626 6.5498 17.5498C7.86256 16.2371 9.64348 15.5 11.5 15.5ZM17.5 0.5C18.9587 0.5 20.3572 1.07988 21.3887 2.11133C22.4201 3.14278 23 4.54131 23 6L22.9932 6.27246C22.9258 7.63195 22.3557 8.92162 21.3887 9.88867C20.3572 10.9201 18.9587 11.5 17.5 11.5L17.2275 11.4932C15.868 11.4258 14.5784 10.8557 13.6113 9.88867C12.5799 8.85722 12 7.45869 12 6C12 4.54131 12.5799 3.14278 13.6113 2.11133C14.6428 1.07988 16.0413 0.5 17.5 0.5Z" fill="#570D1B" stroke="#F5B14F"/>
<path d="M18.5 15.5H30.5C32.3565 15.5 34.1374 16.2371 35.4502 17.5498C36.7629 18.8626 37.5 20.6435 37.5 22.5L37.4951 22.6982C37.4461 23.6869 37.0314 24.6248 36.3281 25.3281C35.578 26.0783 34.5609 26.5 33.5 26.5H15.5C14.4391 26.5 13.422 26.0783 12.6719 25.3281C11.9217 24.578 11.5 23.5609 11.5 22.5C11.5 20.6435 12.2371 18.8626 13.5498 17.5498C14.8626 16.2371 16.6435 15.5 18.5 15.5ZM24.5 0.5C25.9587 0.5 27.3572 1.07988 28.3887 2.11133C29.4201 3.14278 30 4.54131 30 6L29.9932 6.27246C29.9258 7.63195 29.3557 8.92162 28.3887 9.88867C27.3572 10.9201 25.9587 11.5 24.5 11.5L24.2275 11.4932C22.868 11.4258 21.5784 10.8557 20.6113 9.88867C19.5799 8.85722 19 7.45869 19 6C19 4.54131 19.5799 3.14278 20.6113 2.11133C21.6428 1.07988 23.0413 0.5 24.5 0.5Z" fill="#570D1B" stroke="#F5B14F"/>
</svg>
